# 3ds Max Wavefront OBJ Exporter v0.97b - (c)2007 guruware
# File Created: 17.09.2017 19:17:29

#
# object Plane001
#

v  -50.0000 -50.0000 0.0000
v  50.0000 -50.0000 0.0000
v  -50.0000 50.0000 0.0000
v  50.0000 50.0000 0.0000
# 4 vertices

vn 0.0000 0.0000 1.0000
vn 0.0000 0.0000 1.0000
vn 0.0000 0.0000 1.0000
vn 0.0000 0.0000 1.0000
vn 0.0000 0.0000 1.0000
vn 0.0000 0.0000 1.0000
# 6 vertex normals

vt -4.5000 -4.5000 0.5000
vt 5.5000 -4.5000 0.5000
vt -4.5000 5.5000 0.5000
vt 5.5000 5.5000 0.5000
# 4 texture coords

g Plane001
f 3/3/1 1/1/2 4/4/3 
f 2/2/4 4/4/5 1/1/6 
# 2 faces

