# 3ds Max Wavefront OBJ Exporter v0.97b - (c)2007 guruware
# File Created: 21.10.2017 21:23:14

mtllib plane_1024.mtl

#
# object Plane001
#

v  512.0000 512.0000 0.0000
v  -512.0000 512.0000 0.0000
v  -512.0000 -512.0000 0.0000
v  512.0000 -512.0000 0.0000
# 4 vertices

vn 0.0000 0.0000 1.0000
# 1 vertex normals

vt 8.0000 8.0000 0.5000
vt -8.0000 8.0000 0.5000
vt -8.0000 -8.0000 0.5000
vt 8.0000 -8.0000 0.5000
# 4 texture coords

g Plane001
usemtl Unwrap_Texture_Checker_Material
f 1/1/1 2/2/1 3/3/1 
f 3/3/1 4/4/1 1/1/1 
# 2 faces

