# 3ds Max Wavefront OBJ Exporter v0.97b - (c)2007 guruware
# File Created: 09.10.2017 00:36:07

mtllib room.mtl

#
# object Plane001
#

v  -512.0000 -512.0000 0.0000
v  512.0000 -512.0000 0.0000
v  -512.0000 512.0000 0.0000
v  512.0000 512.0000 0.0000
v  -512.0000 -512.0000 128.0000
v  512.0000 -512.0000 128.0000
v  -512.0000 512.0000 128.0000
v  512.0000 512.0000 128.0000
# 8 vertices

vn 0.0000 0.0000 1.0000
vn 0.0000 0.0000 1.0000
vn 0.0000 0.0000 1.0000
vn 0.0000 0.0000 1.0000
vn 0.0000 0.0000 1.0000
vn 0.0000 0.0000 1.0000
vn 1.0000 0.0000 -0.0000
vn 1.0000 0.0000 -0.0000
vn 1.0000 0.0000 -0.0000
vn 1.0000 -0.0000 0.0000
vn 1.0000 -0.0000 0.0000
vn 1.0000 -0.0000 0.0000
vn 0.0000 -1.0000 -0.0000
vn 0.0000 -1.0000 -0.0000
vn 0.0000 -1.0000 -0.0000
vn -0.0000 -1.0000 0.0000
vn -0.0000 -1.0000 0.0000
vn -0.0000 -1.0000 0.0000
vn -1.0000 0.0000 -0.0000
vn -1.0000 0.0000 -0.0000
vn -1.0000 0.0000 -0.0000
vn -1.0000 0.0000 0.0000
vn -1.0000 0.0000 0.0000
vn -1.0000 0.0000 0.0000
vn 0.0000 1.0000 -0.0000
vn 0.0000 1.0000 -0.0000
vn 0.0000 1.0000 -0.0000
vn 0.0000 1.0000 0.0000
vn 0.0000 1.0000 0.0000
vn 0.0000 1.0000 0.0000
# 30 vertex normals

vt -7.5000 -7.5000 0.5000
vt 8.5000 -7.5000 0.5000
vt -7.5000 8.5000 0.5000
vt 8.5000 8.5000 0.5000
vt -7.5000 2.5000 -7.5000
vt 8.5000 2.5000 8.5000
vt 8.5000 2.5000 -7.5000
vt 8.5000 2.5000 8.5000
vt -7.5000 0.5000 -7.5000
vt 8.5000 0.5000 -7.5000
vt -7.5000 0.5000 8.5000
vt 8.5000 0.5000 8.5000
vt -7.5000 2.5000 8.5000
vt -7.5000 0.5000 8.5000
vt 8.5000 0.5000 8.5000
vt -7.5000 2.5000 8.5000
vt -7.5000 0.5000 -7.5000
vt 8.5000 0.5000 -7.5000
vt 8.5000 2.5000 -7.5000
vt -7.5000 2.5000 -7.5000
# 20 texture coords

g Plane001
usemtl brick
f 1/1/1 2/2/2 4/4/3 
f 4/4/4 3/3/5 1/1/6 
f 1/9/7 3/10/8 7/7/9 
f 7/7/10 5/5/11 1/9/12 
f 3/11/13 4/12/14 8/8/15 
f 8/8/16 7/13/17 3/11/18 
f 4/14/19 2/15/20 6/6/21 
f 6/6/22 8/16/23 4/14/24 
f 2/17/25 1/18/26 5/19/27 
f 5/19/28 6/20/29 2/17/30 
# 10 faces

#
# object Box001
#

v  -32.0000 -32.0000 0.0000
v  32.0000 -32.0000 0.0000
v  -32.0000 32.0000 0.0000
v  32.0000 32.0000 0.0000
v  -32.0000 -32.0000 64.0000
v  32.0000 -32.0000 64.0000
v  -32.0000 32.0000 64.0000
v  32.0000 32.0000 64.0000
# 8 vertices

vn 0.0000 0.0000 -1.0000
vn 0.0000 0.0000 -1.0000
vn 0.0000 0.0000 -1.0000
vn 0.0000 0.0000 -1.0000
vn 0.0000 0.0000 -1.0000
vn 0.0000 0.0000 -1.0000
vn 0.0000 0.0000 1.0000
vn 0.0000 0.0000 1.0000
vn 0.0000 0.0000 1.0000
vn 0.0000 0.0000 1.0000
vn 0.0000 0.0000 1.0000
vn 0.0000 0.0000 1.0000
vn 0.0000 -1.0000 0.0000
vn 0.0000 -1.0000 0.0000
vn 0.0000 -1.0000 0.0000
vn 0.0000 -1.0000 0.0000
vn 0.0000 -1.0000 0.0000
vn 0.0000 -1.0000 0.0000
vn 1.0000 0.0000 0.0000
vn 1.0000 0.0000 0.0000
vn 1.0000 0.0000 0.0000
vn 1.0000 0.0000 0.0000
vn 1.0000 0.0000 0.0000
vn 1.0000 0.0000 0.0000
vn 0.0000 1.0000 0.0000
vn 0.0000 1.0000 0.0000
vn 0.0000 1.0000 0.0000
vn 0.0000 1.0000 0.0000
vn 0.0000 1.0000 0.0000
vn 0.0000 1.0000 0.0000
vn -1.0000 0.0000 0.0000
vn -1.0000 0.0000 0.0000
vn -1.0000 0.0000 0.0000
vn -1.0000 0.0000 0.0000
vn -1.0000 0.0000 0.0000
vn -1.0000 0.0000 0.0000
# 36 vertex normals

vt 0.0000 0.0000 0.0000
vt 1.0000 0.0000 0.0000
vt 0.0000 1.0000 0.0000
vt 1.0000 1.0000 0.0000
vt 0.0000 0.0000 0.0000
vt 1.0000 0.0000 0.0000
vt 0.0000 1.0000 0.0000
vt 1.0000 1.0000 0.0000
vt 0.0000 0.0000 0.0000
vt 1.0000 0.0000 0.0000
vt 0.0000 1.0000 0.0000
vt 1.0000 1.0000 0.0000
# 12 texture coords

g Box001
usemtl checker
f 9/30/31 11/32/32 12/31/33 
f 12/31/34 10/29/35 9/30/36 
f 13/29/37 14/30/38 16/32/39 
f 16/32/40 15/31/41 13/29/42 
f 9/25/43 10/26/44 14/28/45 
f 14/28/46 13/27/47 9/25/48 
f 10/21/49 12/22/50 16/24/51 
f 16/24/52 14/23/53 10/21/54 
f 12/25/55 11/26/56 15/28/57 
f 15/28/58 16/27/59 12/25/60 
f 11/21/61 9/22/62 13/24/63 
f 13/24/64 15/23/65 11/21/66 
# 12 faces

